<svg id="Grupo_155" data-name="Grupo 155" xmlns="http://www.w3.org/2000/svg" xmlns:xlink="http://www.w3.org/1999/xlink" width="16.332" height="16.331" viewBox="0 0 16.332 16.331">
  <defs>
    <clipPath id="clip-path">
      <rect id="Rectángulo_166" data-name="Rectángulo 166" width="16.332" height="16.331" fill="none"/>
    </clipPath>
  </defs>
  <g id="Grupo_154" data-name="Grupo 154" clip-path="url(#clip-path)">
    <path id="Trazado_671" data-name="Trazado 671" d="M8.166,0a8.165,8.165,0,1,0,8.166,8.165A8.175,8.175,0,0,0,8.166,0m0,15.993a7.827,7.827,0,1,1,7.828-7.828,7.837,7.837,0,0,1-7.828,7.828" fill="#231f20"/>
    <path id="Trazado_672" data-name="Trazado 672" d="M43.436,25.73a.447.447,0,0,0-.632.631l2.559,2.56L42.8,31.48a.447.447,0,0,0,.632.631l2.875-2.875a.447.447,0,0,0,0-.631Z" transform="translate(-34.489 -20.689)" fill="#231f20"/>
    <path id="Trazado_673" data-name="Trazado 673" d="M18.823,41.38h6.8a.438.438,0,0,0,0-.877h-6.8a.438.438,0,1,0,0,.877" transform="translate(-14.859 -32.734)" fill="#231f20"/>
  </g>
</svg>
