<svg id="Grupo_2" data-name="Grupo 2" xmlns="http://www.w3.org/2000/svg" xmlns:xlink="http://www.w3.org/1999/xlink" width="22.619" height="22" viewBox="0 0 22.619 22">
  <defs>
    <clipPath id="clip-path">
      <rect id="Rectángulo_4" data-name="Rectángulo 4" width="22.619" height="22" fill="none"/>
    </clipPath>
  </defs>
  <g id="Grupo_2-2" data-name="Grupo 2" transform="translate(0 0)" clip-path="url(#clip-path)">
    <path id="Trazado_2" data-name="Trazado 2" d="M8.252,0A8.081,8.081,0,0,1,16.5,7.9a7.667,7.667,0,0,1-1.834,4.962l7.62,7.294a1.053,1.053,0,0,1,0,1.535,1.2,1.2,0,0,1-1.6,0l-7.671-7.347A8.454,8.454,0,0,1,8.252,15.8,8.083,8.083,0,0,1,0,7.9,8.082,8.082,0,0,1,8.252,0m0,14.757A7.021,7.021,0,0,0,15.411,7.9,7.022,7.022,0,0,0,8.252,1.044,7.022,7.022,0,0,0,1.091,7.9a7.021,7.021,0,0,0,7.16,6.856" transform="translate(0 0)" fill="#262626"/>
  </g>
</svg>
